<svg xmlns="http://www.w3.org/2000/svg" xmlns:xlink="http://www.w3.org/1999/xlink" width="563.261" height="326.63" viewBox="0 0 563.261 326.63">
  <defs>
    <linearGradient id="linear-gradient" x1="0.5" x2="1" y2="5.434" gradientUnits="objectBoundingBox">
      <stop offset="0" stop-color="#fff"/>
      <stop offset="1" stop-color="#099ada"/>
    </linearGradient>
    <filter id="Path_66" x="0" y="0" width="563.261" height="326.63" filterUnits="userSpaceOnUse">
      <feOffset dy="20" input="SourceAlpha"/>
      <feGaussianBlur stdDeviation="15" result="blur"/>
      <feFlood flood-opacity="0.161"/>
      <feComposite operator="in" in2="blur"/>
      <feComposite in="SourceGraphic"/>
    </filter>
    <linearGradient id="linear-gradient-2" x1="-0.707" y1="-0.057" x2="1.679" y2="1.097" gradientUnits="objectBoundingBox">
      <stop offset="0" stop-color="#ccffea"/>
      <stop offset="1" stop-color="#099ada"/>
    </linearGradient>
    <filter id="Rectangle_398" x="70.356" y="63.579" width="404.863" height="167.213" filterUnits="userSpaceOnUse">
      <feOffset input="SourceAlpha"/>
      <feGaussianBlur stdDeviation="6" result="blur-2"/>
      <feFlood flood-color="#0093ff" flood-opacity="0.392"/>
      <feComposite operator="in" in2="blur-2"/>
      <feComposite in="SourceGraphic"/>
    </filter>
    <filter id="Path_46" x="55.022" y="53.809" width="434.786" height="159.508" filterUnits="userSpaceOnUse">
      <feOffset dy="3" input="SourceAlpha"/>
      <feGaussianBlur stdDeviation="3" result="blur-3"/>
      <feFlood flood-opacity="0.161"/>
      <feComposite operator="in" in2="blur-3"/>
      <feComposite in="SourceGraphic"/>
    </filter>
  </defs>
  <g id="Group_63" data-name="Group 63" transform="translate(-2157 -897)">
    <g transform="matrix(1, 0, 0, 1, 2157, 897)" filter="url(#Path_66)">
      <path id="Path_66-2" data-name="Path 66" d="M37.323,0H435.937a37.323,37.323,0,0,1,37.323,37.323V199.307a37.323,37.323,0,0,1-37.323,37.323H37.323A37.323,37.323,0,0,1,0,199.307V37.323A37.323,37.323,0,0,1,37.323,0Z" transform="translate(45 25)" fill="url(#linear-gradient)"/>
    </g>
    <text id="Stronger" transform="translate(2250.816 938.352)" fill="#fc2764" font-size="20" font-family="SFProText-Medium, SF Pro Text" font-weight="500"><tspan x="0" y="19">Stronger</tspan></text>
    <g transform="matrix(1, 0, 0, 1, 2157, 897)" filter="url(#Rectangle_398)">
      <rect id="Rectangle_398-2" data-name="Rectangle 398" width="131.213" height="368.863" rx="11" transform="translate(457.22 81.58) rotate(90)" fill="url(#linear-gradient-2)"/>
    </g>
    <path id="Subtraction_4" data-name="Subtraction 4" d="M368.863,13.239h0a11,11,0,0,0-11-11H11A11,11,0,0,0,0,13.027L0,11A11,11,0,0,1,11,0H357.863a11,11,0,0,1,11,11Z" transform="translate(2245.295 978.579)" fill="#f0f0f0"/>
    <path id="Subtraction_3" data-name="Subtraction 3" d="M357.863,10.451H11A10.928,10.928,0,0,1,3.222,7.229,10.928,10.928,0,0,1,0-.549V-2.577A10.953,10.953,0,0,0,3.222,4.99,10.927,10.927,0,0,0,11,8.212H357.863a10.927,10.927,0,0,0,7.778-3.222,10.93,10.93,0,0,0,3.222-7.76V-.549a10.928,10.928,0,0,1-3.222,7.778A10.928,10.928,0,0,1,357.863,10.451Z" transform="translate(2245.295 1098.594)" fill="#d0d0d0" style="mix-blend-mode: multiply;isolation: isolate"/>
    <g transform="matrix(1, 0, 0, 1, 2157, 897)" filter="url(#Path_46)">
      <path id="Path_46-2" data-name="Path 46" d="M2280.01,1096.6c57.107-7.959,215.233,72.639,259.35,47.229s70.418-125.858,156.663-125.64" transform="translate(-2215.23 -952.88)" fill="none" stroke="#feac0b" stroke-width="11"/>
    </g>
  </g>
</svg>
