<svg xmlns="http://www.w3.org/2000/svg" xmlns:xlink="http://www.w3.org/1999/xlink" width="314.027" height="314.027" viewBox="0 0 314.027 314.027">
  <defs>
    <style>
      .cls-1 {
        fill: url(#linear-gradient);
      }

      .cls-2 {
        fill: #fc2764;
        font-size: 20px;
        font-family: SFProText-Medium, SF Pro Text;
        font-weight: 500;
      }

      .cls-3 {
        fill: #ebebeb;
      }

      .cls-4 {
        fill: url(#linear-gradient-2);
      }

      .cls-5 {
        fill: #c7c7c7;
      }

      .cls-6 {
        fill: #f5f5f5;
      }

      .cls-7 {
        filter: url(#Rectangle_398);
      }

      .cls-8 {
        filter: url(#Rectangle_397);
      }

      .cls-9 {
        filter: url(#Rectangle_396);
      }

      .cls-10 {
        filter: url(#Rectangle_395);
      }

      .cls-11 {
        filter: url(#Rectangle_394);
      }

      .cls-12 {
        filter: url(#Rectangle_393);
      }

      .cls-13 {
        filter: url(#Rectangle_410);
      }

      .cls-14 {
        filter: url(#Rectangle_409);
      }

      .cls-15 {
        filter: url(#Rectangle_408);
      }

      .cls-16 {
        filter: url(#Rectangle_407);
      }

      .cls-17 {
        filter: url(#Rectangle_406);
      }

      .cls-18 {
        filter: url(#Rectangle_405);
      }

      .cls-19 {
        filter: url(#Path_45);
      }
    </style>
    <linearGradient id="linear-gradient" x1="0.184" y1="0.205" x2="1.668" y2="2.378" gradientUnits="objectBoundingBox">
      <stop offset="0" stop-color="#fff"/>
      <stop offset="1" stop-color="#b7d9e8"/>
      <stop offset="1" stop-color="#a1a1a1"/>
      <stop offset="1" stop-color="gray"/>
    </linearGradient>
    <filter id="Path_45" x="0" y="0" width="314.027" height="314.027" filterUnits="userSpaceOnUse">
      <feOffset dy="10" input="SourceAlpha"/>
      <feGaussianBlur stdDeviation="15" result="blur"/>
      <feFlood flood-opacity="0.161"/>
      <feComposite operator="in" in2="blur"/>
      <feComposite in="SourceGraphic"/>
    </filter>
    <filter id="Rectangle_405" x="223.342" y="77.818" width="35.387" height="173.816" filterUnits="userSpaceOnUse">
      <feOffset dy="3" input="SourceAlpha"/>
      <feGaussianBlur stdDeviation="3" result="blur-2"/>
      <feFlood flood-opacity="0.161"/>
      <feComposite operator="in" in2="blur-2"/>
      <feComposite in="SourceGraphic"/>
    </filter>
    <filter id="Rectangle_406" x="189.905" y="115.936" width="35.387" height="135.698" filterUnits="userSpaceOnUse">
      <feOffset dy="3" input="SourceAlpha"/>
      <feGaussianBlur stdDeviation="3" result="blur-3"/>
      <feFlood flood-opacity="0.161"/>
      <feComposite operator="in" in2="blur-3"/>
      <feComposite in="SourceGraphic"/>
    </filter>
    <filter id="Rectangle_407" x="155.8" y="105.905" width="35.387" height="145.729" filterUnits="userSpaceOnUse">
      <feOffset dy="3" input="SourceAlpha"/>
      <feGaussianBlur stdDeviation="3" result="blur-4"/>
      <feFlood flood-opacity="0.161"/>
      <feComposite operator="in" in2="blur-4"/>
      <feComposite in="SourceGraphic"/>
    </filter>
    <filter id="Rectangle_408" x="122.363" y="150.041" width="35.387" height="101.592" filterUnits="userSpaceOnUse">
      <feOffset dy="3" input="SourceAlpha"/>
      <feGaussianBlur stdDeviation="3" result="blur-5"/>
      <feFlood flood-opacity="0.161"/>
      <feComposite operator="in" in2="blur-5"/>
      <feComposite in="SourceGraphic"/>
    </filter>
    <filter id="Rectangle_409" x="88.257" y="133.992" width="35.387" height="117.642" filterUnits="userSpaceOnUse">
      <feOffset dy="3" input="SourceAlpha"/>
      <feGaussianBlur stdDeviation="3" result="blur-6"/>
      <feFlood flood-opacity="0.161"/>
      <feComposite operator="in" in2="blur-6"/>
      <feComposite in="SourceGraphic"/>
    </filter>
    <filter id="Rectangle_410" x="54.821" y="123.961" width="35.387" height="127.673" filterUnits="userSpaceOnUse">
      <feOffset dy="3" input="SourceAlpha"/>
      <feGaussianBlur stdDeviation="3" result="blur-7"/>
      <feFlood flood-opacity="0.161"/>
      <feComposite operator="in" in2="blur-7"/>
      <feComposite in="SourceGraphic"/>
    </filter>
    <linearGradient id="linear-gradient-2" x1="0.5" x2="0.5" y2="1" gradientUnits="objectBoundingBox">
      <stop offset="0" stop-color="#872d84"/>
      <stop offset="1" stop-color="#fe5343"/>
    </linearGradient>
    <filter id="Rectangle_393" x="229.342" y="116.267" width="23.387" height="124.366" filterUnits="userSpaceOnUse">
      <feOffset dy="-2" input="SourceAlpha"/>
      <feGaussianBlur stdDeviation="1" result="blur-8"/>
      <feFlood flood-opacity="0.161"/>
      <feComposite operator="in" in2="blur-8"/>
      <feComposite in="SourceGraphic"/>
    </filter>
    <filter id="Rectangle_394" x="195.905" y="145.023" width="23.387" height="95.611" filterUnits="userSpaceOnUse">
      <feOffset dy="-2" input="SourceAlpha"/>
      <feGaussianBlur stdDeviation="1" result="blur-9"/>
      <feFlood flood-opacity="0.161"/>
      <feComposite operator="in" in2="blur-9"/>
      <feComposite in="SourceGraphic"/>
    </filter>
    <filter id="Rectangle_395" x="161.8" y="137.667" width="23.387" height="102.967" filterUnits="userSpaceOnUse">
      <feOffset dy="-2" input="SourceAlpha"/>
      <feGaussianBlur stdDeviation="1" result="blur-10"/>
      <feFlood flood-opacity="0.161"/>
      <feComposite operator="in" in2="blur-10"/>
      <feComposite in="SourceGraphic"/>
    </filter>
    <filter id="Rectangle_396" x="128.363" y="171.104" width="23.387" height="69.53" filterUnits="userSpaceOnUse">
      <feOffset dy="-2" input="SourceAlpha"/>
      <feGaussianBlur stdDeviation="1" result="blur-11"/>
      <feFlood flood-opacity="0.161"/>
      <feComposite operator="in" in2="blur-11"/>
      <feComposite in="SourceGraphic"/>
    </filter>
    <filter id="Rectangle_397" x="94.257" y="159.066" width="23.387" height="81.567" filterUnits="userSpaceOnUse">
      <feOffset dy="-2" input="SourceAlpha"/>
      <feGaussianBlur stdDeviation="1" result="blur-12"/>
      <feFlood flood-opacity="0.161"/>
      <feComposite operator="in" in2="blur-12"/>
      <feComposite in="SourceGraphic"/>
    </filter>
    <filter id="Rectangle_398" x="60.821" y="151.041" width="23.387" height="89.592" filterUnits="userSpaceOnUse">
      <feOffset dy="-2" input="SourceAlpha"/>
      <feGaussianBlur stdDeviation="1" result="blur-13"/>
      <feFlood flood-opacity="0.161"/>
      <feComposite operator="in" in2="blur-13"/>
      <feComposite in="SourceGraphic"/>
    </filter>
  </defs>
  <g id="Group_74" data-name="Group 74" transform="translate(-878.167 -612.234)">
    <g class="cls-19" transform="matrix(1, 0, 0, 1, 878.17, 612.23)">
      <path id="Path_45-2" data-name="Path 45" class="cls-1" d="M33.437,0H190.59a33.437,33.437,0,0,1,33.437,33.437V190.59a33.437,33.437,0,0,1-33.437,33.437H33.437A33.437,33.437,0,0,1,0,190.59V33.437A33.437,33.437,0,0,1,33.437,0Z" transform="translate(45 35)"/>
    </g>
    <text id="Better" class="cls-2" transform="translate(952.56 673.002)"><tspan x="0" y="19">Better</tspan></text>
    <g id="Group_59" data-name="Group 59" transform="translate(941.988 696.052)">
      <g id="Group_58" data-name="Group 58" transform="translate(0 0)">
        <g class="cls-18" transform="matrix(1, 0, 0, 1, -63.82, -83.82)">
          <rect id="Rectangle_405-2" data-name="Rectangle 405" class="cls-3" width="17.387" height="155.816" rx="8.694" transform="translate(232.34 83.82)"/>
        </g>
        <g class="cls-17" transform="matrix(1, 0, 0, 1, -63.82, -83.82)">
          <rect id="Rectangle_406-2" data-name="Rectangle 406" class="cls-3" width="17.387" height="117.698" rx="8.694" transform="translate(198.91 121.94)"/>
        </g>
        <g class="cls-16" transform="matrix(1, 0, 0, 1, -63.82, -83.82)">
          <rect id="Rectangle_407-2" data-name="Rectangle 407" class="cls-3" width="17.387" height="127.729" rx="8.694" transform="translate(164.8 111.9)"/>
        </g>
        <g class="cls-15" transform="matrix(1, 0, 0, 1, -63.82, -83.82)">
          <rect id="Rectangle_408-2" data-name="Rectangle 408" class="cls-3" width="17.387" height="83.592" rx="8.694" transform="translate(131.36 156.04)"/>
        </g>
        <g class="cls-14" transform="matrix(1, 0, 0, 1, -63.82, -83.82)">
          <rect id="Rectangle_409-2" data-name="Rectangle 409" class="cls-3" width="17.387" height="99.642" rx="8.694" transform="translate(97.26 139.99)"/>
        </g>
        <g class="cls-13" transform="matrix(1, 0, 0, 1, -63.82, -83.82)">
          <rect id="Rectangle_410-2" data-name="Rectangle 410" class="cls-3" width="17.387" height="109.673" rx="8.694" transform="translate(63.82 129.96)"/>
        </g>
      </g>
      <g class="cls-12" transform="matrix(1, 0, 0, 1, -63.82, -83.82)">
        <rect id="Rectangle_393-2" data-name="Rectangle 393" class="cls-4" width="17.387" height="118.366" rx="8.694" transform="translate(232.34 121.27)"/>
      </g>
      <g class="cls-11" transform="matrix(1, 0, 0, 1, -63.82, -83.82)">
        <rect id="Rectangle_394-2" data-name="Rectangle 394" class="cls-4" width="17.387" height="89.611" rx="8.694" transform="translate(198.91 150.02)"/>
      </g>
      <g class="cls-10" transform="matrix(1, 0, 0, 1, -63.82, -83.82)">
        <rect id="Rectangle_395-2" data-name="Rectangle 395" class="cls-4" width="17.387" height="96.967" rx="8.694" transform="translate(164.8 142.67)"/>
      </g>
      <g class="cls-9" transform="matrix(1, 0, 0, 1, -63.82, -83.82)">
        <rect id="Rectangle_396-2" data-name="Rectangle 396" class="cls-4" width="17.387" height="63.53" rx="8.694" transform="translate(131.36 176.1)"/>
      </g>
      <g class="cls-8" transform="matrix(1, 0, 0, 1, -63.82, -83.82)">
        <rect id="Rectangle_397-2" data-name="Rectangle 397" class="cls-4" width="17.387" height="75.567" rx="8.694" transform="translate(97.26 164.07)"/>
      </g>
      <g class="cls-7" transform="matrix(1, 0, 0, 1, -63.82, -83.82)">
        <rect id="Rectangle_398-2" data-name="Rectangle 398" class="cls-4" width="17.387" height="83.592" rx="8.694" transform="translate(63.82 156.04)"/>
      </g>
      <path id="Subtraction_1" data-name="Subtraction 1" class="cls-5" d="M175.686,154.288a8.66,8.66,0,0,1-6.782-3.254,8.694,8.694,0,0,0,14.138-6.778V5.828A8.717,8.717,0,0,0,181.13.387a8.661,8.661,0,0,1,3.249,6.779V145.594A8.7,8.7,0,0,1,175.686,154.288Zm-33.437,0a8.659,8.659,0,0,1-6.782-3.254,8.694,8.694,0,0,0,14.138-6.778V43.946a8.6,8.6,0,0,0-1.913-5.442,8.66,8.66,0,0,1,3.251,6.78v100.31A8.7,8.7,0,0,1,142.249,154.288Zm-34.105,0a8.659,8.659,0,0,1-6.782-3.254,8.694,8.694,0,0,0,14.138-6.778V33.914a8.716,8.716,0,0,0-1.912-5.44,8.66,8.66,0,0,1,3.249,6.778V145.594A8.7,8.7,0,0,1,108.144,154.288Zm-33.437,0a8.659,8.659,0,0,1-6.782-3.254,8.694,8.694,0,0,0,14.138-6.778v-66.2A8.716,8.716,0,0,0,80.15,72.61a8.66,8.66,0,0,1,3.25,6.779v66.2A8.7,8.7,0,0,1,74.707,154.288Zm-34.105,0a8.659,8.659,0,0,1-6.782-3.254,8.694,8.694,0,0,0,14.138-6.778V62a8.716,8.716,0,0,0-1.912-5.44,8.66,8.66,0,0,1,3.25,6.779v82.255A8.7,8.7,0,0,1,40.6,154.288Zm-33.437,0a8.659,8.659,0,0,1-6.782-3.254,8.694,8.694,0,0,0,14.138-6.778V51.97a8.6,8.6,0,0,0-1.912-5.439,8.66,8.66,0,0,1,3.249,6.778v92.286A8.7,8.7,0,0,1,7.165,154.288Z" transform="translate(2.006 2.006)"/>
      <path id="Subtraction_2" data-name="Subtraction 2" class="cls-6" d="M171.767,153.9a8.661,8.661,0,0,1-3.244-6.774V8.694A8.694,8.694,0,0,1,184,3.251a8.694,8.694,0,0,0-14.136,6.78V148.46a8.6,8.6,0,0,0,1.908,5.435Zm-33.437,0a8.661,8.661,0,0,1-3.244-6.774V46.812a8.694,8.694,0,0,1,15.473-5.443,8.694,8.694,0,0,0-14.136,6.78V148.46a8.717,8.717,0,0,0,1.908,5.435Zm-34.106,0a8.661,8.661,0,0,1-3.244-6.774V36.78a8.694,8.694,0,0,1,15.474-5.442,8.694,8.694,0,0,0-14.136,6.78V148.46a8.717,8.717,0,0,0,1.908,5.435Zm-33.437,0a8.661,8.661,0,0,1-3.244-6.774v-66.2a8.694,8.694,0,0,1,15.473-5.443,8.694,8.694,0,0,0-14.136,6.78v66.2a8.717,8.717,0,0,0,1.908,5.435Zm-34.106,0a8.661,8.661,0,0,1-3.244-6.774V64.867a8.694,8.694,0,0,1,15.473-5.443A8.694,8.694,0,0,0,34.775,66.2V148.46a8.717,8.717,0,0,0,1.908,5.435Zm-33.437,0A8.661,8.661,0,0,1,0,147.122V54.836a8.694,8.694,0,0,1,15.473-5.442A8.694,8.694,0,0,0,1.338,56.173V148.46a8.717,8.717,0,0,0,1.908,5.435Z" transform="translate(0 0.669)"/>
    </g>
  </g>
</svg>
