<svg id="Group_4" data-name="Group 4" xmlns="http://www.w3.org/2000/svg" width="144.168" height="66.803" viewBox="0 0 144.168 66.803">
  <path id="Path_15" data-name="Path 15" d="M165.46,158.407h5.6v24.681h-.022v5.29h6.713V154.707H165.46Zm-33.022-19.034H118.88v3.319h6.945V184.54l-5.679.264v3.575H138.4V184.8l-5.959-.264Zm24.155,44.933c-2.62-.662-4.122-2.809-6.289-5.575l-5.679-9.393,10.928-11.25,4.628-.008v-3.373h-11.6l-.012,3.216-8.906,9.123h-3.115v4.685h2.4l6.373,10.5c3.189,4.278,6.457,6.922,11.124,6.922a5.656,5.656,0,0,0,2.41-.337l0,0,.014-.015c.8-.884,5.85-6.658,5.85-6.658l-2.5-2.171Zm17.082-44.383a4.273,4.273,0,1,0,4.272,4.272A4.309,4.309,0,0,0,173.675,139.923ZM248.5,154.306a14.349,14.349,0,0,0-11.047,5.056v-4.655l-11.9.01v3.691h5.678v43.769l-6.445.352.105,3.648,9.1-.011h3.893l9.1-.152.04-3.65-9.157-.3-.021-13.227h-.01V178.024h.01V163.641c2.176-2.178,4.978-4.124,8.866-4.124,6.769,0,9.569,5.756,9.569,12.291,0,7.157-3.345,12.291-10.19,12.291a12.078,12.078,0,0,1-4.042-.68v3.8a8.489,8.489,0,0,0,5.687,1.893c9.647,0,15.313-7.267,15.313-17.458C263.048,161.7,257.6,154.306,248.5,154.306Zm-29.642,31.086V154.707h-6.689v24.037c-2.955,2.49-6.689,4.745-10.658,4.745-3.889,0-5.211-2.256-5.211-5.912v-22.87H184.011v3.7h5.679v19.87c0,7,3.735,10.929,9.725,10.929,4.978,0,9.412-2.471,12.912-5.583v5.254l11.112-.018-.049-3.048Z" transform="translate(-118.88 -139.373)" fill="#bcbcbc"/>
</svg>
