<svg xmlns="http://www.w3.org/2000/svg" width="255.91" height="44.839" viewBox="0 0 255.91 44.839">
  <g id="Horta-Dai" transform="translate(-9.29 -7.69)">
    <g id="Group_46" data-name="Group 46" transform="translate(9.29 7.69)">
      <path id="Path_39" data-name="Path 39" d="M70.7,7.69q-10.755,0-15.657,5.315t-4.9,17.073q0,11.752,4.926,17.1t15.657,5.353q10.737,0,15.619-5.315t4.9-17.1q0-11.79-4.9-17.1Q81.456,7.677,70.7,7.69Zm4.438,30.336c-.689,1.592-2.156,2.382-4.412,2.382s-3.736-.8-4.45-2.419S65.21,33.751,65.21,30.1s.351-6.28,1.066-7.885S68.482,19.8,70.751,19.8s3.748.79,4.412,2.357,1,4.212,1,7.922S75.828,36.434,75.138,38.026ZM32.669,24.437H24.232V8.517H9.29V51.677H24.232V36.609h8.436V51.677H47.611V8.517H32.669ZM163.676,8.517h-32.2V20.689h8.888V51.677H155.3V20.7h8.374V8.517ZM130.482,24.136q0-8.988-4.312-12.3t-14.3-3.322H93.7V51.677h14.942V40.533h3.673l2.444,11.144h15.205l-4.249-14.691Q130.495,33.131,130.482,24.136Zm-18.226,4.613h-3.673V20.313h3.284c2.357,0,3.548,1.4,3.548,4.224S114.362,28.749,112.256,28.749Zm90.857,12.56H222.3V29.652H203.112ZM260.3,13.544q-4.889-5.02-16.045-5.027H226.027V51.677h18.878q10.887,0,15.594-5.5t4.7-16.559Q265.2,18.577,260.3,13.544ZM248.578,37.825a6.62,6.62,0,0,1-4.964,1.68h-2.645V20.7h2.645c2.745,0,4.525.639,5.315,1.93s1.191,3.861,1.191,7.734S249.606,36.709,248.578,37.825Zm-78.6-29.308-9.539,43.159h14.691l1.028-4.964h9.853l1.228,4.964H202.31L192.583,8.517h-22.6Zm8.123,26.8,2.444-15.068h1.6l2.319,15.068Z" transform="translate(-9.29 -7.69)" fill="#bcbcbc"/>
    </g>
  </g>
</svg>
