<svg xmlns="http://www.w3.org/2000/svg" width="291.784" height="58.673" viewBox="0 0 291.784 58.673">
  <g id="Group_20" data-name="Group 20" transform="translate(28.004 15.631)">
    <g id="Group_4" data-name="Group 4" transform="translate(-28.004 -15.631)">
      <path id="Path_1" data-name="Path 1" d="M13.69,41h-.644c0,3.789-2.605,5.88-6.492,5.88C2.312,46.876,0,44.369,0,39.745V7.2C0,2.567,2.312.06,6.523.06c4.242,0,6.523,2.507,6.523,7.131V17.215h.644c1.22-3.537,5.015-5.782,9.767-5.782,7.713,0,12.176,5.947,12.176,16.29v2.8c0,10.41-4.464,16.357-12.274,16.357C18.6,46.876,14.91,44.626,13.69,41Zm3.918-3.954c2.827,0,4.5-2.476,4.5-6.812V28.109c0-4.3-1.673-6.878-4.5-6.878-2.857,0-4.562,2.569-4.562,6.878v2.121C13.046,34.54,14.751,37.042,17.608,37.042Z" transform="translate(0 -0.029)" fill="#bcbcbc"/>
      <path id="Path_2" data-name="Path 2" d="M87.264,57.746c-7.2,0-11.214-4.335-11.214-12.465V29.661c0-4.629,2.312-7.131,6.554-7.131,4.211,0,6.492,2.507,6.492,7.131V41.966c0,3.47,1.575,5.365,4.212,5.365,2.7,0,4.145-1.895,4.145-5.365V29.661c0-4.629,2.281-7.131,6.523-7.131,4.211,0,6.523,2.507,6.523,7.131V50.868c0,4.242-2.44,6.878-6.328,6.878-3.825,0-6.039-2.152-6.266-6.137h-.644C96.068,55.306,91.99,57.746,87.264,57.746Z" transform="translate(-36.895 -10.93)" fill="#bcbcbc"/>
      <path id="Path_3" data-name="Path 3" d="M162.466,46.816c-7.743,0-12.336-6.07-12.336-16.357V27.632c0-10.282,4.562-16.259,12.336-16.259,4.757,0,8.387,2.152,9.638,5.751h.644V7.131C172.748,2.5,175.028,0,179.271,0s6.523,2.507,6.523,7.131V39.68c0,4.629-2.281,7.131-6.523,7.131-3.728,0-6.106-2.152-6.523-5.88H172.1C170.853,44.566,167.192,46.816,162.466,46.816Zm5.72-9.767c2.857,0,4.562-2.569,4.562-6.878V28.018c0-4.273-1.7-6.812-4.562-6.812-2.827,0-4.531,2.538-4.531,6.812v2.152C163.655,34.475,165.359,37.049,168.186,37.049Z" transform="translate(-72.835 0)" fill="#bcbcbc"/>
      <path id="Path_4" data-name="Path 4" d="M239.156,46.816c-7.743,0-12.336-6.07-12.336-16.357V27.632c0-10.282,4.562-16.259,12.336-16.259,4.757,0,8.387,2.152,9.638,5.751h.644V7.131C249.438,2.5,251.719,0,255.961,0s6.523,2.507,6.523,7.131V39.68c0,4.629-2.281,7.131-6.523,7.131-3.728,0-6.106-2.152-6.523-5.88h-.644C247.543,44.566,243.882,46.816,239.156,46.816Zm5.72-9.767c2.857,0,4.562-2.569,4.562-6.878V28.018c0-4.273-1.7-6.812-4.562-6.812-2.827,0-4.531,2.538-4.531,6.812v2.152C240.345,34.475,242.049,37.049,244.876,37.049Z" transform="translate(-110.04 0)" fill="#bcbcbc"/>
      <path id="Path_5" data-name="Path 5" d="M303.958,60.387c1.061,0,1.606.227,2.955.257,1.478,0,2.477-.484,2.894-1.287a4.19,4.19,0,0,0,.257-1.7l-8.742-26.345a9.2,9.2,0,0,1-.448-2.827c0-3.439,2.7-5.941,6.328-5.941,3.661,0,5.91,1.962,6.714,5.941l3.918,19.57h.515l4.211-19.57c.87-4.016,2.986-5.941,6.554-5.941a5.833,5.833,0,0,1,6.106,5.941,8.812,8.812,0,0,1-.546,2.827l-8.547,25.707c-2.924,8.773-7.841,12.593-17.222,12.593-3.31,0-5.818-.736-7.26-2.152a4.583,4.583,0,0,1-1.416-3.408A3.56,3.56,0,0,1,303.958,60.387Z" transform="translate(-145.655 -10.935)" fill="#bcbcbc"/>
      <path id="Path_6" data-name="Path 6" d="M375.451,64.78a6.971,6.971,0,1,1-6.971,6.971A7.006,7.006,0,0,1,375.451,64.78Z" transform="translate(-178.766 -31.428)" fill="#bcbcbc"/>
      <path id="Path_7" data-name="Path 7" d="M408.443,70.2c-1.38,0-2.183-.963-2.183-2.476v-41c0-1.575.772-2.507,2.09-2.507,1.349,0,2.121.932,2.121,2.507v3.439h.227c1.22-3.28,4.948-6.2,10.38-6.2,7.81,0,12.887,5.524,12.887,14.236v6.235c0,8.933-5.3,14.267-13.077,14.267-5.143,0-8.547-2.538-9.962-5.88H410.7v14.91A2.21,2.21,0,0,1,408.443,70.2ZM420.3,54.717c5.591,0,9.221-3.985,9.221-11.342V39.261c0-7.259-3.537-11.311-9.35-11.311-5.91,0-9.479,4.242-9.479,10.539v6.2C410.693,50.542,414.58,54.717,420.3,54.717Z" transform="translate(-197.095 -11.629)" fill="#bcbcbc"/>
      <path id="Path_8" data-name="Path 8" d="M471.99,38.844c0-8.995,5.622-14.874,13.69-14.874,7.841,0,13.366,5.72,13.366,14.4,0,3.084-.577,4.016-2.569,4.016H476.459v1.833c0,6.585,3.789,10.508,9.9,10.508a9.821,9.821,0,0,0,7.486-3.213c1.447-1.447,1.8-1.673,2.569-1.673a1.856,1.856,0,0,1,1.8,1.962,5.563,5.563,0,0,1-1.8,3.408c-2.023,2.152-5.88,3.5-10.251,3.5-8.8,0-14.169-5.524-14.169-14.751Zm22.592-.319v-.1c0-6.492-3.47-10.539-8.9-10.539-5.494,0-9.221,4.175-9.221,10.539v.1Z" transform="translate(-228.983 -11.629)" fill="#bcbcbc"/>
      <path id="Path_9" data-name="Path 9" d="M536.394,20.886h-3.053a1.889,1.889,0,0,1-2.121-1.895,1.863,1.863,0,0,1,2.121-1.926h3.053V11.026a2.232,2.232,0,1,1,4.438,0v6.039h5.494a1.863,1.863,0,0,1,2.121,1.926,1.887,1.887,0,0,1-2.121,1.895h-5.494v21.5c0,3.758,1.158,4.85,4.561,4.85,1.092,0,1.735-.1,2.312-.1a1.644,1.644,0,0,1,1.8,1.7,1.8,1.8,0,0,1-1.22,1.766,8.675,8.675,0,0,1-3.63.546c-6.008,0-8.258-2.25-8.258-9.031Z" transform="translate(-257.718 -4.148)" fill="#bcbcbc"/>
    </g>
  </g>
</svg>
