<svg id="SOAPID" xmlns="http://www.w3.org/2000/svg" width="138.877" height="45.096" viewBox="0 0 138.877 45.096">
  <g id="Group_24" data-name="Group 24" transform="translate(0 1.021)">
    <g id="Group_21" data-name="Group 21">
      <path id="Path_16" data-name="Path 16" d="M.3,37.039l2.828-5a1.543,1.543,0,0,1,2.046-.357c.241.116,4.574,3.31,8.551,3.31,2.413,0,4.159-1.506,4.159-3.609,0-2.528-2.1-4.459-6.205-6.08C6.5,23.248,0,19.214,0,11.986,0,6.022,4.632,0,13.907,0A22.432,22.432,0,0,1,26.8,4.517a1.527,1.527,0,0,1,.357,1.93l-3.069,4.632c-.425.666-1.506,1.206-2.046.782-.54-.3-4.941-3.609-8.608-3.609-2.171,0-3.793,1.448-3.793,3.069,0,2.229,1.8,3.918,6.562,5.839,4.7,1.863,12.17,5.539,12.17,13.733,0,6.205-5.356,12.469-14.215,12.469-7.827,0-12.17-3.252-13.55-4.632C0,38.12-.183,37.879.3,37.039Z" fill="#bcbcbc"/>
    </g>
    <g id="Group_22" data-name="Group 22" transform="translate(75.575 0.598)">
      <path id="Path_17" data-name="Path 17" d="M78.31,1.768A1.151,1.151,0,0,1,79.458.62H93.973a13.468,13.468,0,0,1,13.492,13.308,13.543,13.543,0,0,1-13.434,13.55H87.71V41.626a1.191,1.191,0,0,1-1.148,1.148h-7.1a1.145,1.145,0,0,1-1.148-1.148ZM93.423,18.686a4.73,4.73,0,0,0,4.758-4.758A4.6,4.6,0,0,0,93.423,9.47H87.7v9.216Z" transform="translate(-78.31 -0.62)" fill="#bcbcbc"/>
    </g>
    <g id="Group_23" data-name="Group 23" transform="translate(98.294)">
      <path id="Path_18" data-name="Path 18" d="M101.976,41.189,120.823.656A1.224,1.224,0,0,1,121.846,0h.6a1.214,1.214,0,0,1,1.023.666L142.315,41.2a1.062,1.062,0,0,1-1.023,1.563H134.6c-1.081,0-1.563-.357-2.1-1.506L130.329,36.5H113.952l-2.171,4.816a2.244,2.244,0,0,1-2.171,1.448h-6.62A1.066,1.066,0,0,1,101.976,41.189ZM126.72,28.305l-4.574-9.94h-.058l-4.517,9.94h9.149Z" transform="translate(-101.852)" fill="#bcbcbc"/>
    </g>
  </g>
  <g id="Group_45" data-name="Group 45" transform="translate(28.49 0)">
    <g id="Group_25" data-name="Group 25" transform="translate(0.434 7.904)">
      <path id="Path_19" data-name="Path 19" d="M30.732,16.954a.771.771,0,0,1-.347-.087.755.755,0,0,1-.328-1.023l4.227-8.3a.76.76,0,0,1,1.351.695l-4.227,8.3A.77.77,0,0,1,30.732,16.954Z" transform="translate(-29.972 -7.132)" fill="#bcbcbc"/>
    </g>
    <g id="Group_26" data-name="Group 26" transform="translate(0 2.21)">
      <path id="Path_20" data-name="Path 20" d="M30.282,26.013a.771.771,0,0,1-.347-.087.755.755,0,0,1-.328-1.023L41.468,1.645a.76.76,0,0,1,1.351.695L30.958,25.6A.759.759,0,0,1,30.282,26.013Z" transform="translate(-29.522 -1.232)" fill="#bcbcbc"/>
    </g>
    <g id="Group_27" data-name="Group 27" transform="translate(1.583 0.444)">
      <path id="Path_21" data-name="Path 21" d="M31.922,31.267a.771.771,0,0,1-.347-.087.755.755,0,0,1-.328-1.023L46.717-.185A.755.755,0,0,1,47.74-.513.755.755,0,0,1,48.068.51L32.6,30.852A.759.759,0,0,1,31.922,31.267Z" transform="translate(-31.162 0.598)" fill="#bcbcbc"/>
    </g>
    <g id="Group_28" data-name="Group 28" transform="translate(15.943)">
      <path id="Path_22" data-name="Path 22" d="M46.8,11.505a.771.771,0,0,1-.347-.087.755.755,0,0,1-.328-1.023L51.753-.645a.755.755,0,0,1,1.023-.328A.755.755,0,0,1,53.1.05L47.478,11.09A.752.752,0,0,1,46.8,11.505Z" transform="translate(-46.042 1.058)" fill="#bcbcbc"/>
    </g>
    <g id="Group_29" data-name="Group 29" transform="translate(3.87 23.625)">
      <path id="Path_23" data-name="Path 23" d="M34.292,36.043a.771.771,0,0,1-.347-.087.755.755,0,0,1-.328-1.023l5.655-11.1a.76.76,0,0,1,1.351.695l-5.655,11.1A.752.752,0,0,1,34.292,36.043Z" transform="translate(-33.532 -23.422)" fill="#bcbcbc"/>
    </g>
    <g id="Group_30" data-name="Group 30" transform="translate(20.923 0.415)">
      <path id="Path_24" data-name="Path 24" d="M51.962,10.179a.771.771,0,0,1-.347-.087.755.755,0,0,1-.328-1.023L56.025-.215a.755.755,0,0,1,1.023-.328A.755.755,0,0,1,57.376.48L52.638,9.773A.769.769,0,0,1,51.962,10.179Z" transform="translate(-51.202 0.628)" fill="#bcbcbc"/>
    </g>
    <g id="Group_31" data-name="Group 31" transform="translate(6.601 28.431)">
      <path id="Path_25" data-name="Path 25" d="M37.122,39.3a.771.771,0,0,1-.347-.087.755.755,0,0,1-.328-1.023l4.777-9.371a.76.76,0,0,1,1.351.695L37.8,38.881A.77.77,0,0,1,37.122,39.3Z" transform="translate(-36.362 -28.402)" fill="#bcbcbc"/>
    </g>
    <g id="Group_32" data-name="Group 32" transform="translate(24.957 1.486)">
      <path id="Path_26" data-name="Path 26" d="M56.142,10.729a.771.771,0,0,1-.347-.087.755.755,0,0,1-.328-1.023L59.916.9a.76.76,0,1,1,1.351.695l-4.449,8.724A.752.752,0,0,1,56.142,10.729Z" transform="translate(-55.382 -0.482)" fill="#bcbcbc"/>
    </g>
    <g id="Group_33" data-name="Group 33" transform="translate(9.68 31.413)">
      <path id="Path_27" data-name="Path 27" d="M40.312,41.787a.771.771,0,0,1-.347-.087.755.755,0,0,1-.328-1.023l4.478-8.772a.76.76,0,0,1,1.351.695l-4.478,8.772A.77.77,0,0,1,40.312,41.787Z" transform="translate(-39.552 -31.492)" fill="#bcbcbc"/>
    </g>
    <g id="Group_34" data-name="Group 34" transform="translate(13.077 33.227)">
      <path id="Path_28" data-name="Path 28" d="M43.832,43.609a.771.771,0,0,1-.347-.087.755.755,0,0,1-.328-1.023L47.6,33.785a.76.76,0,1,1,1.351.695l-4.439,8.715A.77.77,0,0,1,43.832,43.609Z" transform="translate(-43.072 -33.372)" fill="#bcbcbc"/>
    </g>
    <g id="Group_35" data-name="Group 35" transform="translate(28.383 3.194)">
      <path id="Path_29" data-name="Path 29" d="M59.692,12.489a.771.771,0,0,1-.347-.087.755.755,0,0,1-.328-1.023l4.449-8.715a.76.76,0,1,1,1.351.695l-4.449,8.715A.759.759,0,0,1,59.692,12.489Z" transform="translate(-58.932 -2.252)" fill="#bcbcbc"/>
    </g>
    <g id="Group_36" data-name="Group 36" transform="translate(31.23 5.501)">
      <path id="Path_30" data-name="Path 30" d="M62.642,15.4a.771.771,0,0,1-.347-.087.755.755,0,0,1-.328-1.023l4.71-9.236a.76.76,0,0,1,1.351.695l-4.71,9.236A.732.732,0,0,1,62.642,15.4Z" transform="translate(-61.882 -4.642)" fill="#bcbcbc"/>
    </g>
    <g id="Group_37" data-name="Group 37" transform="translate(16.783 33.893)">
      <path id="Path_31" data-name="Path 31" d="M47.672,44.782a.771.771,0,0,1-.347-.087A.755.755,0,0,1,47,43.672l4.69-9.2a.76.76,0,1,1,1.351.695l-4.69,9.2A.77.77,0,0,1,47.672,44.782Z" transform="translate(-46.912 -34.062)" fill="#bcbcbc"/>
    </g>
    <g id="Group_38" data-name="Group 38" transform="translate(20.826 32.88)">
      <path id="Path_32" data-name="Path 32" d="M51.862,45.228a.771.771,0,0,1-.347-.087.755.755,0,0,1-.328-1.023L56.64,33.425a.76.76,0,0,1,1.351.695L52.538,44.813A.749.749,0,0,1,51.862,45.228Z" transform="translate(-51.102 -33.012)" fill="#bcbcbc"/>
    </g>
    <g id="Group_39" data-name="Group 39" transform="translate(33.247 8.483)">
      <path id="Path_33" data-name="Path 33" d="M64.732,19.977a.771.771,0,0,1-.347-.087.755.755,0,0,1-.328-1.023L69.519,8.145a.76.76,0,0,1,1.351.695L65.408,19.571A.74.74,0,0,1,64.732,19.977Z" transform="translate(-63.972 -7.732)" fill="#bcbcbc"/>
    </g>
    <g id="Group_40" data-name="Group 40" transform="translate(25.294 12.305)">
      <path id="Path_34" data-name="Path 34" d="M56.492,44.155a.771.771,0,0,1-.347-.087.755.755,0,0,1-.328-1.023L71.6,12.105a.76.76,0,0,1,1.351.695L57.168,43.74A.752.752,0,0,1,56.492,44.155Z" transform="translate(-55.732 -11.692)" fill="#bcbcbc"/>
    </g>
    <g id="Group_41" data-name="Group 41" transform="translate(30.371 17.371)">
      <path id="Path_35" data-name="Path 35" d="M61.752,42.794a.771.771,0,0,1-.347-.087.755.755,0,0,1-.328-1.023l12.4-24.329a.76.76,0,1,1,1.351.695l-12.4,24.329A.742.742,0,0,1,61.752,42.794Z" transform="translate(-60.992 -16.942)" fill="#bcbcbc"/>
    </g>
    <g id="Group_42" data-name="Group 42" transform="translate(37.001 25.507)">
      <path id="Path_36" data-name="Path 36" d="M68.622,38.514a.771.771,0,0,1-.347-.087.755.755,0,0,1-.328-1.023l5.926-11.619a.76.76,0,1,1,1.351.695L69.3,38.1A.759.759,0,0,1,68.622,38.514Z" transform="translate(-67.862 -25.372)" fill="#bcbcbc"/>
    </g>
    <g id="Group_43" data-name="Group 43" transform="translate(12.139 29.192)">
      <path id="Path_37" data-name="Path 37" d="M42.1,29.19" transform="translate(-42.1 -29.19)" fill="#bcbcbc"/>
    </g>
    <g id="Group_44" data-name="Group 44" transform="translate(14.909 32.174)">
      <path id="Path_38" data-name="Path 38" d="M44.97,32.28" transform="translate(-44.97 -32.28)" fill="#bcbcbc"/>
    </g>
  </g>
</svg>
